<svg xmlns="http://www.w3.org/2000/svg" xmlns:xlink="http://www.w3.org/1999/xlink" width="500" zoomAndPan="magnify" viewBox="0 0 375 374.999991" height="500" preserveAspectRatio="xMidYMid meet" version="1.0"><defs><clipPath id="b51bab69e5"><path d="M 30 150 L 344.863281 150 L 344.863281 326 L 30 326 Z M 30 150 " clip-rule="nonzero"/></clipPath><clipPath id="95748df294"><path d="M 30 173 L 344.863281 173 L 344.863281 330.75 L 30 330.75 Z M 30 173 " clip-rule="nonzero"/></clipPath><clipPath id="c2be6768ae"><path d="M 159 44.25 L 216 44.25 L 216 189 L 159 189 Z M 159 44.25 " clip-rule="nonzero"/></clipPath></defs><g clip-path="url(#b51bab69e5)"><path fill="#77c146" d="M 52.863281 256.214844 C 49.832031 251.21875 47.078125 246.042969 44.601562 240.707031 C 51.328125 241.242188 57.761719 242.8125 63.746094 245.265625 C 60.589844 248.96875 57.589844 252.804688 54.773438 256.785156 C 54.144531 256.582031 53.503906 256.390625 52.863281 256.214844 Z M 244.476562 321.285156 C 240.113281 322.984375 235.660156 324.492188 231.125 325.808594 C 228.886719 321.882812 226.136719 318.292969 222.972656 315.117188 C 213.859375 306.003906 201.273438 300.359375 187.371094 300.359375 C 173.460938 300.359375 160.875 306.003906 151.769531 315.117188 C 148.597656 318.292969 145.847656 321.882812 143.613281 325.808594 C 139.074219 324.492188 134.621094 322.984375 130.261719 321.285156 C 133.324219 315.355469 137.277344 309.964844 141.949219 305.289062 C 153.574219 293.652344 169.628906 286.457031 187.371094 286.457031 C 205.105469 286.457031 221.167969 293.652344 232.792969 305.289062 C 237.460938 309.964844 241.410156 315.355469 244.476562 321.285156 Z M 315.617188 265.722656 C 312.773438 269.730469 309.742188 273.59375 306.539062 277.308594 C 300.800781 267.996094 294.007812 259.410156 286.316406 251.71875 C 260.996094 226.371094 226.007812 210.699219 187.371094 210.699219 C 148.726562 210.699219 113.742188 226.371094 88.417969 251.71875 C 80.734375 259.410156 73.9375 267.996094 68.195312 277.308594 C 64.992188 273.59375 61.960938 269.730469 59.117188 265.722656 C 64.8125 257.136719 71.34375 249.148438 78.597656 241.890625 C 106.4375 214.027344 144.894531 196.792969 187.371094 196.792969 C 229.84375 196.792969 268.300781 214.027344 296.140625 241.890625 C 303.390625 249.148438 309.921875 257.136719 315.617188 265.722656 Z M 283.480469 299.179688 C 279.785156 302.039062 275.96875 304.738281 272.027344 307.257812 C 267.484375 298.417969 261.597656 290.378906 254.644531 283.417969 C 237.425781 266.1875 213.640625 255.527344 187.371094 255.527344 C 161.09375 255.527344 137.308594 266.1875 120.089844 283.417969 C 113.136719 290.378906 107.25 298.417969 102.707031 307.257812 C 98.769531 304.738281 94.949219 302.03125 91.261719 299.179688 C 96.332031 289.730469 102.757812 281.113281 110.273438 273.589844 C 130 253.839844 157.261719 241.625 187.371094 241.625 C 217.476562 241.625 244.734375 253.839844 264.464844 273.589844 C 271.984375 281.113281 278.402344 289.730469 283.480469 299.179688 Z M 342.917969 151.023438 C 343.609375 155.632812 344.085938 160.300781 344.371094 165.03125 C 341.371094 164.835938 338.347656 164.742188 335.300781 164.742188 C 300.539062 164.742188 268.746094 177.421875 244.273438 198.421875 C 239.285156 196.550781 234.183594 194.921875 228.972656 193.542969 C 256.597656 167.09375 294.054688 150.835938 335.300781 150.835938 C 337.855469 150.835938 340.390625 150.90625 342.917969 151.023438 Z M 343.214844 195.957031 C 342.578125 200.613281 341.746094 205.207031 340.722656 209.722656 C 338.925781 209.621094 337.121094 209.570312 335.300781 209.570312 C 317.800781 209.570312 301.402344 214.304688 287.308594 222.558594 C 283.359375 219.46875 279.269531 216.558594 275.039062 213.84375 C 292.304688 202.359375 313.019531 195.667969 335.300781 195.667969 C 337.964844 195.667969 340.601562 195.769531 343.214844 195.957031 Z M 330.132812 240.707031 C 327.664062 246.042969 324.910156 251.226562 321.878906 256.214844 C 321.234375 256.390625 320.597656 256.582031 319.964844 256.785156 C 317.148438 252.804688 314.152344 248.96875 310.992188 245.265625 C 316.972656 242.8125 323.410156 241.242188 330.132812 240.707031 Z M 30.363281 165.03125 C 30.648438 160.300781 31.132812 155.632812 31.820312 151.023438 C 34.34375 150.90625 36.882812 150.835938 39.4375 150.835938 C 80.683594 150.835938 118.140625 167.09375 145.765625 193.542969 C 140.554688 194.921875 135.449219 196.550781 130.460938 198.421875 C 105.992188 177.421875 74.195312 164.742188 39.4375 164.742188 C 36.390625 164.742188 33.367188 164.835938 30.363281 165.03125 Z M 34.015625 209.722656 C 32.984375 205.207031 32.15625 200.613281 31.523438 195.957031 C 34.136719 195.769531 36.777344 195.667969 39.4375 195.667969 C 61.714844 195.667969 82.429688 202.359375 99.695312 213.84375 C 95.46875 216.558594 91.375 219.46875 87.429688 222.558594 C 73.339844 214.304688 56.941406 209.570312 39.4375 209.570312 C 37.617188 209.570312 35.8125 209.621094 34.015625 209.722656 Z M 34.015625 209.722656 " fill-opacity="1" fill-rule="evenodd"/></g><g clip-path="url(#95748df294)"><path fill="#4f852c" d="M 338.554688 218.148438 C 337.199219 222.855469 335.632812 227.480469 333.859375 232 C 323.574219 232.203125 313.808594 234.542969 304.988281 238.585938 C 301.597656 235.027344 298.035156 231.621094 294.335938 228.375 C 306.535156 221.808594 320.480469 218.085938 335.300781 218.085938 C 336.390625 218.085938 337.476562 218.105469 338.554688 218.148438 Z M 300.558594 283.863281 C 297.246094 287.296875 293.789062 290.582031 290.183594 293.699219 C 284.84375 284.082031 278.195312 275.289062 270.480469 267.570312 C 249.214844 246.277344 219.824219 233.113281 187.371094 233.113281 C 154.910156 233.113281 125.527344 246.277344 104.253906 267.570312 C 96.542969 275.289062 89.890625 284.082031 84.554688 293.699219 C 80.945312 290.582031 77.488281 287.296875 74.179688 283.863281 C 79.828125 274.316406 86.640625 265.539062 94.433594 257.742188 C 118.21875 233.933594 151.078125 219.210938 187.371094 219.210938 C 223.660156 219.210938 256.515625 233.933594 280.300781 257.742188 C 288.09375 265.539062 294.914062 274.316406 300.558594 283.863281 Z M 264.71875 311.660156 C 260.695312 313.9375 256.566406 316.046875 252.339844 317.964844 C 248.832031 311.023438 244.25 304.714844 238.808594 299.269531 C 225.644531 286.09375 207.457031 277.945312 187.371094 277.945312 C 167.277344 277.945312 149.09375 286.09375 135.925781 299.269531 C 130.484375 304.714844 125.902344 311.023438 122.402344 317.964844 C 118.167969 316.046875 114.042969 313.9375 110.023438 311.660156 C 114.195312 303.410156 119.640625 295.914062 126.113281 289.441406 C 141.785156 273.746094 163.445312 264.042969 187.371094 264.042969 C 211.292969 264.042969 232.953125 273.746094 248.628906 289.441406 C 255.09375 295.914062 260.546875 303.410156 264.71875 311.660156 Z M 222.523438 328.039062 C 217.417969 329.203125 212.21875 330.121094 206.933594 330.773438 C 201.898438 325.828125 194.988281 322.777344 187.371094 322.777344 C 179.746094 322.777344 172.84375 325.828125 167.800781 330.773438 C 162.515625 330.121094 157.316406 329.203125 152.214844 328.039062 C 153.828125 325.542969 155.691406 323.230469 157.785156 321.140625 C 165.355469 313.558594 175.816406 308.875 187.371094 308.875 C 198.921875 308.875 209.386719 313.558594 216.953125 321.140625 C 219.042969 323.230469 220.910156 325.542969 222.523438 328.039062 Z M 30.597656 187.484375 C 30.25 183.21875 30.070312 178.90625 30.070312 174.554688 C 30.070312 174.230469 30.082031 173.90625 30.082031 173.585938 C 33.175781 173.367188 36.292969 173.253906 39.4375 173.253906 C 70.496094 173.253906 99.039062 184.039062 121.53125 202.070312 C 116.796875 204.171875 112.1875 206.496094 107.707031 209.019531 C 88.464844 195.257812 64.898438 187.15625 39.4375 187.15625 C 36.464844 187.15625 33.515625 187.269531 30.597656 187.484375 Z M 40.875 232 C 39.105469 227.480469 37.542969 222.855469 36.1875 218.148438 C 37.265625 218.105469 38.347656 218.085938 39.4375 218.085938 C 54.253906 218.085938 68.207031 221.808594 80.40625 228.375 C 76.703125 231.621094 73.144531 235.027344 69.75 238.585938 C 60.933594 234.542969 51.164062 232.203125 40.875 232 Z M 344.652344 173.585938 C 344.652344 173.90625 344.664062 174.230469 344.664062 174.554688 C 344.664062 178.90625 344.484375 183.21875 344.136719 187.484375 C 341.21875 187.269531 338.273438 187.15625 335.300781 187.15625 C 309.84375 187.15625 286.277344 195.257812 267.03125 209.019531 C 262.550781 206.496094 257.941406 204.171875 253.207031 202.070312 C 275.699219 184.039062 304.238281 173.253906 335.300781 173.253906 C 338.449219 173.253906 341.5625 173.367188 344.652344 173.585938 Z M 344.652344 173.585938 " fill-opacity="1" fill-rule="evenodd"/></g><g clip-path="url(#c2be6768ae)"><path fill="#ffcc00" d="M 189.136719 109.105469 C 195.433594 107.40625 204.296875 100.726562 207.914062 96.90625 C 212.824219 91.707031 216.019531 83.195312 214.941406 72.972656 C 199.222656 77.777344 187.714844 88.035156 189.136719 109.105469 Z M 185.59375 109.113281 C 187.117188 88.265625 175.648438 77.722656 159.871094 73.058594 C 158.605469 82.863281 161.683594 91.078125 166.378906 96.441406 C 170.246094 100.851562 179 107.148438 185.59375 109.113281 Z M 189.1875 188.984375 C 204.605469 184.152344 216.507812 171.386719 215.019531 152.976562 C 208.152344 154.28125 198.921875 160.441406 195.535156 164.65625 C 190.683594 170.671875 188.328125 179.109375 189.1875 188.984375 Z M 159.757812 153.003906 C 158.109375 171.503906 170.265625 183.949219 185.539062 188.984375 C 186.503906 179.066406 183.796875 169.917969 178.835938 164.085938 C 175.414062 160.054688 166.585938 154.324219 159.757812 153.003906 Z M 187.269531 88.640625 C 191.558594 83.730469 195.21875 73.25 196.101562 68.0625 C 197.304688 61.003906 195.234375 52.15625 188.664062 44.25 C 178.257812 56.988281 174.386719 71.914062 187.269531 88.640625 Z M 189.019531 135.472656 C 195.863281 133.5625 204.433594 127.167969 208.019531 123.09375 C 213.464844 116.910156 215.316406 109.960938 215.140625 99.558594 C 208.3125 101.019531 198.867188 106.859375 195.730469 110.800781 C 191.003906 116.734375 188.957031 125.230469 189.019531 135.472656 Z M 185.722656 135.460938 C 185.851562 125.308594 183.886719 116.949219 179.011719 110.800781 C 176.039062 107.046875 166.347656 100.925781 159.632812 99.558594 C 159.390625 117.960938 169.144531 130.59375 185.722656 135.460938 Z M 166.667969 150.15625 C 170.179688 154.023438 178.898438 160.75 185.78125 162.527344 C 185.746094 152.171875 184.109375 143.980469 178.949219 137.886719 C 175.226562 133.492188 166.335938 127.851562 159.617188 126.636719 C 159.441406 137.160156 161.003906 143.921875 166.667969 150.15625 Z M 188.996094 162.476562 C 196.175781 160.808594 204.34375 154.132812 208.03125 150.117188 C 213.820312 143.808594 215.472656 137.433594 215.089844 126.675781 C 208.796875 127.78125 198.652344 134.183594 195.734375 137.828125 C 190.867188 143.929688 188.894531 152.332031 188.996094 162.476562 Z M 188.996094 162.476562 " fill-opacity="1" fill-rule="evenodd"/></g></svg>